<?xml version="1.0" encoding="utf-8"?>
<!-- Generator: Adobe Illustrator 24.2.3, SVG Export Plug-In . SVG Version: 6.00 Build 0)  -->
<svg version="1.1" id="Layer_1" xmlns="http://www.w3.org/2000/svg" xmlns:xlink="http://www.w3.org/1999/xlink" x="0px" y="0px"
	 viewBox="0 0 22.9 17.2" style="enable-background:new 0 0 22.9 17.2;" xml:space="preserve">
<g id="Layer_1_1_">
	<path d="M0.7,1.5h21.5c0.4,0,0.7-0.3,0.7-0.7S22.7,0,22.2,0H0.7C0.3,0,0,0.3,0,0.7S0.3,1.5,0.7,1.5z"/>
	<path d="M0.7,17.2h21.5c0.4,0,0.7-0.3,0.7-0.7s-0.3-0.7-0.7-0.7H0.7c-0.4,0-0.7,0.3-0.7,0.7S0.3,17.2,0.7,17.2z"/>
	<path d="M0.7,9.4h21.5c0.4,0,0.7-0.3,0.7-0.7c0-0.4-0.3-0.7-0.7-0.7H0.7C0.3,8,0,8.3,0,8.7S0.3,9.4,0.7,9.4z"/>
</g>
</svg>
