<?xml version="1.0" encoding="utf-8"?>
<!-- Generator: Adobe Illustrator 24.2.3, SVG Export Plug-In . SVG Version: 6.00 Build 0)  -->
<svg version="1.1" id="Layer_1" xmlns="http://www.w3.org/2000/svg" x="0px" y="0px"
	 viewBox="0 0 23 17.2" style="enable-background:new 0 0 23 17.2;" xml:space="preserve">
<g id="Layer_1_1_">
	<path d="M0.4,1.4L21.7,17c0.4,0.3,0.9,0.3,1.1-0.1c0.2-0.3,0.3-0.8-0.2-1.2L1.3,0.2C0.9-0.1,0.4-0.1,0.2,0.2S0,1.1,0.4,1.4z"/>
</g>
<g id="Layer_1_2_">
	<path d="M21.7,0.2L0.4,15.8c-0.4,0.3-0.5,0.8-0.3,1.1c0.2,0.3,0.7,0.5,1.2,0.1L22.6,1.4c0.4-0.3,0.5-0.8,0.3-1.1
		C22.6,0,22.1-0.1,21.7,0.2z"/>
</g>
</svg>
