<svg height='300px' width='300px' fill="#000000" xmlns="http://www.w3.org/2000/svg"
     version="1.1" x="0px" y="0px" viewBox="0 0 100 100"
     enable-background="new 0 0 100 100" xml:space="preserve"><g><g><circle cx="62.75" cy="44.25" r="7.375" /><rect
        x="47.919" y="-4.103" transform="matrix(0.7071 -0.7071 0.7071 0.7071 -20.7107 50)" width="4.163"
        height="108.207"/><path
        d="M28,17.5h44c5.79,0,10.5,4.71,10.5,10.5v27.278l-13.143,9.015l14.369,14.369C84.85,76.694,85.5,74.424,85.5,72V28    c0-7.444-6.056-13.5-13.5-13.5H28c-2.423,0-4.694,0.65-6.662,1.773l2.224,2.224C24.912,17.864,26.413,17.5,28,17.5z"/><path
        d="M60.926,70.075L40,50L17.5,68.047V28c0-1.587,0.364-3.088,0.998-4.438l-2.224-2.224C15.15,23.306,14.5,25.577,14.5,28v44    c0,7.444,6.056,13.5,13.5,13.5h44c2.424,0,4.694-0.65,6.662-1.773L63.349,68.413L60.926,70.075z"/></g></g></svg>